<mxfile host="app.diagrams.net" modified="2023-09-07T08:17:47.536Z" agent="Mozilla/5.0 (X11; Linux x86_64) AppleWebKit/537.36 (KHTML, like Gecko) Chrome/116.0.0.0 Safari/537.36" etag="CSmw3KcRe6zG94N8E_iC" version="21.7.2" type="github">
  <diagram name="第 1 页" id="Cae2upTnIQvBc6o3JLJM">
    <mxGraphModel dx="1394" dy="768" grid="1" gridSize="10" guides="1" tooltips="1" connect="1" arrows="1" fold="1" page="1" pageScale="1" pageWidth="9999900" pageHeight="9999900" math="0" shadow="0">
      <root>
        <mxCell id="0" />
        <mxCell id="1" parent="0" />
        <mxCell id="kWRK8RVOuWWIg3DDgBui-2" value="gdws4&lt;br&gt;192.168.1.164" style="whiteSpace=wrap;html=1;aspect=fixed;" vertex="1" parent="1">
          <mxGeometry x="200" y="250" width="140" height="140" as="geometry" />
        </mxCell>
        <mxCell id="kWRK8RVOuWWIg3DDgBui-3" value="gdws3&lt;br&gt;192.168.1.164" style="whiteSpace=wrap;html=1;aspect=fixed;" vertex="1" parent="1">
          <mxGeometry x="440" y="240" width="140" height="140" as="geometry" />
        </mxCell>
        <mxCell id="kWRK8RVOuWWIg3DDgBui-4" value="gdws2&lt;br&gt;192.168.1.164" style="whiteSpace=wrap;html=1;aspect=fixed;" vertex="1" parent="1">
          <mxGeometry x="740" y="240" width="140" height="140" as="geometry" />
        </mxCell>
      </root>
    </mxGraphModel>
  </diagram>
</mxfile>
